<svg data-v-423bf9ae="" xmlns="http://www.w3.org/2000/svg" viewBox="0 0 110.7692291569327 60" class="font"><!----><!----><!----><g data-v-423bf9ae="" id="501a9b95-a845-402c-926a-fed1b65cf1d6" fill="black" transform="matrix(5.494505456117445,0,0,5.494505456117445,-4.285712540487992,-16.97802067254998)"><path d="M0.99 12.57L0.99 12.57L0.99 12.57Q1.19 12.31 1.48 12.31L1.48 12.31L1.48 12.31Q1.78 12.31 1.94 12.52L1.94 12.52L1.94 12.52Q2.10 12.73 2.10 13.07L2.10 13.07L2.10 13.07Q2.10 13.41 1.89 13.68L1.89 13.68L1.89 13.68Q1.68 13.94 1.40 13.94L1.40 13.94L1.40 13.94Q1.12 13.94 0.95 13.73L0.95 13.73L0.95 13.73Q0.78 13.51 0.78 13.17L0.78 13.17L0.78 13.17Q0.78 12.84 0.99 12.57ZM5.52 11.49L5.52 11.49L5.59 9.67L5.59 9.67Q4.66 9.63 4.15 9.23L4.15 9.23L4.15 9.23Q3.64 8.83 3.64 8.30L3.64 8.30L3.64 8.30Q3.64 7.77 4.15 7.38L4.15 7.38L4.15 7.38Q4.66 6.99 5.59 6.85L5.59 6.85L5.59 6.85Q5.46 4.70 5.46 4.41L5.46 4.41L5.46 4.41Q5.46 3.09 8.01 3.09L8.01 3.09L8.01 3.09Q9.80 3.09 10.79 3.83L10.79 3.83L10.79 3.83Q11.77 4.56 11.77 5.66L11.77 5.66L11.77 5.66Q11.77 6.75 10.68 7.69L10.68 7.69L10.68 7.69Q12.54 8.71 12.54 10.40L12.54 10.40L12.54 10.40Q12.54 11.51 11.86 12.36L11.86 12.36L11.86 12.36Q11.17 13.20 10.08 13.61L10.08 13.61L10.08 13.61Q8.99 14.01 7.88 14.01L7.88 14.01L7.88 14.01Q6.65 14.01 5.63 13.71L5.63 13.71L5.63 13.71Q4.61 13.41 4.06 13.01L4.06 13.01L4.06 13.01Q3.51 12.60 3.51 12.33L3.51 12.33L3.51 12.33Q3.51 12.05 3.65 11.91L3.65 11.91L3.65 11.91Q3.79 11.76 3.99 11.76L3.99 11.76L3.99 11.76Q3.99 11.76 4.05 11.76L4.05 11.76L4.05 11.76Q4.12 11.76 4.43 11.95L4.43 11.95L4.43 11.95Q4.75 12.14 5.14 12.39L5.14 12.39L5.14 12.39Q5.54 12.64 6.20 12.84L6.20 12.84L6.20 12.84Q6.85 13.03 7.49 13.03L7.49 13.03L7.49 13.03Q7.53 13.03 7.57 13.03L7.57 13.03L7.57 13.03Q9.24 13.03 10.33 12.31L10.33 12.31L10.33 12.31Q11.42 11.58 11.42 10.43L11.42 10.43L11.42 10.43Q11.42 9.77 11.03 9.21L11.03 9.21L11.03 9.21Q10.64 8.65 9.97 8.32L9.97 8.32L9.97 8.32Q8.53 9.38 6.59 9.63L6.59 9.63L6.65 11.42L6.65 11.42Q6.65 11.48 6.65 11.52L6.65 11.52L6.65 11.52Q6.65 11.89 6.40 12.04L6.40 12.04L6.40 12.04Q6.24 12.14 6.09 12.14L6.09 12.14L5.78 12.04L5.78 12.04Q5.52 11.87 5.52 11.49ZM6.57 4.40L6.57 4.40L6.57 4.40Q6.57 4.89 6.59 6.76L6.59 6.76L6.59 6.76Q8.29 6.76 9.80 7.29L9.80 7.29L9.80 7.29Q10.74 6.58 10.74 5.73L10.74 5.73L10.74 5.73Q10.74 4.87 10.04 4.47L10.04 4.47L10.04 4.47Q9.34 4.07 8.29 4.07L8.29 4.07L8.29 4.07Q7.25 4.07 6.57 4.40ZM6.57 7.71L6.57 7.71L6.57 8.68L6.57 8.68Q7.18 8.65 7.93 8.44L7.93 8.44L7.93 8.44Q8.68 8.22 9.10 7.94L9.10 7.94L9.10 7.94Q8.33 7.69 6.96 7.69L6.96 7.69L6.96 7.69Q6.71 7.69 6.57 7.71ZM5.60 8.74L5.60 8.74L5.60 7.78L5.60 7.78Q4.61 7.90 4.61 8.25L4.61 8.25L4.61 8.25Q4.61 8.71 5.60 8.74ZM15.40 7.81L15.40 7.81L15.29 10.89L15.29 10.89Q15.29 11.86 15.70 12.45L15.70 12.45L15.70 12.45Q16.11 13.03 16.83 13.03L16.83 13.03L16.83 13.03Q17.54 13.03 18.21 12.24L18.21 12.24L18.21 12.24Q18.87 11.42 19.15 10.42L19.15 10.42L19.11 7.38L19.11 7.38Q19.11 6.66 19.64 6.66L19.64 6.66L19.64 6.66Q20.29 6.66 20.29 7.62L20.29 7.62L20.29 7.62Q20.29 8.58 20.01 10.42L20.01 10.42L20.01 10.42Q20.01 11.44 20.15 12.12L20.15 12.12L20.15 12.12Q20.30 12.80 20.52 12.88L20.52 12.88L20.52 12.88Q20.61 12.92 20.73 12.94L20.73 12.94L20.73 12.94Q20.85 12.95 20.89 12.98L20.89 12.98L20.89 12.98Q20.94 13.01 20.94 13.09L20.94 13.09L20.94 13.09Q20.94 13.47 20.71 13.71L20.71 13.71L20.71 13.71Q20.48 13.94 20.13 13.94L20.13 13.94L20.13 13.94Q19.25 13.94 19.25 12.15L19.25 12.15L19.25 12.15Q18.21 13.94 16.65 13.94L16.65 13.94L16.65 13.94Q15.53 13.94 14.91 13.12L14.91 13.12L14.91 13.12Q14.29 12.26 14.29 11.07L14.29 11.07L14.38 8.96L14.38 8.96Q14.38 8.53 14.27 7.92L14.27 7.92L14.27 7.92Q14.15 7.31 14.15 7.15L14.15 7.15L14.15 7.15Q14.15 7 14.33 6.83L14.33 6.83L14.33 6.83Q14.50 6.66 14.76 6.66L14.76 6.66L14.76 6.66Q15.40 6.66 15.40 7.81Z"></path></g><!----><!----></svg>