<svg height="128" preserveAspectRatio="xMidYMid meet" viewBox="0 0 128 128" width="128" xmlns="http://www.w3.org/2000/svg"><g transform="matrix(.1 0 0 -.1 0 128)"><path d="m280 1250c-18-18-20-33-20-129 0-123 8-141 64-141 51 0 56 12 56 141 0 110-1 119-22 133-30 21-54 20-78-4z"/><path d="m927 1252c-14-15-17-41-17-133 0-127 5-139 56-139 56 0 64 18 64 141 0 96-2 111-20 129-25 25-62 26-83 2z"/><path d="m68 1163c-15-2-37-16-48-30-19-25-20-39-20-545v-520l29-29 29-29h582 582l29 29 29 29v521 520l-23 26c-20 24-32 27-104 32l-81 6-3-98c-4-87-6-99-28-116-36-30-111-26-144 7-24 23-27 35-29 112l-3 87h-220-220l-3-83c-3-97-18-127-67-141-44-12-79-4-107 26-20 21-23 37-26 114l-4 89-61-1c-34-1-74-4-89-6zm1132-698v-375h-560-560v375 375h560 560z"/><path d="m677 733c-4-3-7-37-7-75v-68h85 85v75 75h-78c-43 0-82-3-85-7z"/><path d="m914 726c-3-7-4-40-2-72l3-59 83-3 82-3v76 75h-80c-59 0-82-4-86-14z"/><path d="m192 458 3-73 83-3 82-3v76 75h-85-86z"/><path d="m432 458 3-73 83-3 82-3v76 75h-85-86z"/><path d="m672 458 3-73 83-3 82-3v76 75h-85-86z"/><path d="m914 516c-3-7-4-40-2-72l3-59 83-3 82-3v76 75h-80c-59 0-82-4-86-14z"/><path d="m192 248 3-73h80 80l3 73 3 72h-86-86z"/><path d="m432 248 3-73h80 80l3 73 3 72h-86-86z"/><path d="m672 248 3-73h80 80l3 73 3 72h-86-86z"/><path d="m912 248 3-73h80 80l3 73 3 72h-86-86z"/></g></svg>