<svg height="512" preserveAspectRatio="xMidYMid meet" viewBox="0 0 512 512" width="512" xmlns="http://www.w3.org/2000/svg"><g transform="matrix(.1 0 0 -.1 0 512)"><path d="m275 5106c-111-35-190-104-239-206l-31-65v-355-355l31-65c39-83 101-145 184-184l65-31h2275 2275l67 32c82 39 142 99 182 183l31 65v355 355l-31 65c-40 84-100 144-182 183l-67 32-2260 2c-1806 1-2268-1-2300-11z"/><path d="m275 3506c-111-35-190-104-239-206l-31-65v-515-515l31-65c39-83 101-145 184-184l65-31h890 890l67 33c82 40 157 119 190 200l23 57v505 505l-23 57c-33 81-108 160-190 200l-67 33-875 2c-688 2-884-1-915-11z"/><path d="m2856 3497c-109-61-106-221 5-277 38-20 59-20 1098-18 1052 3 1060 3 1087 24 53 39 69 71 69 134s-16 95-69 134c-27 21-34 21-1089 23l-1062 3z"/><path d="m2856 2857c-109-61-106-221 5-277 38-20 59-20 1098-18 1052 3 1060 3 1087 24 53 39 69 71 69 134s-16 95-69 134c-27 21-34 21-1089 23l-1062 3z"/><path d="m2856 2217c-109-61-106-221 5-277 38-20 59-20 1098-18 1052 3 1060 3 1087 24 53 39 69 71 69 134s-16 95-69 134c-27 21-34 21-1089 23l-1062 3z"/><path d="m275 1586c-111-35-190-104-239-206l-31-65v-515-515l31-65c39-83 101-145 184-184l65-31h890 890l67 33c82 40 157 119 190 200l23 57v505 505l-23 57c-33 81-108 160-190 200l-67 33-875 2c-688 2-884-1-915-11z"/><path d="m2856 1577c-109-61-106-221 5-277 38-20 59-20 1098-18 1052 3 1060 3 1087 24 53 39 69 71 69 134s-16 95-69 134c-27 21-34 21-1089 23l-1062 3z"/><path d="m2856 937c-109-61-106-221 5-277 38-20 59-20 1098-18 1052 3 1060 3 1087 24 53 39 69 71 69 134s-16 95-69 134c-27 21-34 21-1089 23l-1062 3z"/><path d="m2856 297c-109-61-106-221 5-277 38-20 59-20 1098-18 1052 3 1060 3 1087 24 53 39 69 71 69 134s-16 95-69 134c-27 21-34 21-1089 23l-1062 3z"/></g></svg>